<?xml version="1.0" encoding="utf-8"?>
<!-- Generator: Adobe Illustrator 16.0.0, SVG Export Plug-In . SVG Version: 6.00 Build 0)  -->
<!DOCTYPE svg PUBLIC "-//W3C//DTD SVG 1.1//EN" "http://www.w3.org/Graphics/SVG/1.1/DTD/svg11.dtd">
<svg version="1.1" id="Layer_1" xmlns="http://www.w3.org/2000/svg" xmlns:xlink="http://www.w3.org/1999/xlink" x="0px" y="0px"
	 width="150px" height="50px" viewBox="0 0 150 50" enable-background="new 0 0 150 50" xml:space="preserve">
<path fill="#E37426" d="M77.422,31.861c-1.098-0.254-0.775-0.744-0.51-1.454c0.56-1.491,0.975-3.042,1.34-4.594
	c0.1-0.419-0.189-0.929-0.363-1.671c-1.053,1.372-1.733,2.924-3.592,2.411c-1.939-0.536-2.642-2.032-2.857-3.898
	c-1.08,2.53-0.764,4.966,0.384,7.356c0.161,0.335,0.423,0.634,0.522,0.982c0.091,0.317,0.158,0.789-0.01,0.992
	c-0.164,0.201-0.686,0.291-0.964,0.191c-5.994-2.152-10.873-7.288-6.768-15.199c1.215-2.342,3.195-4.296,4.884-6.38
	c0.551-0.679,1.33-1.168,1.928-1.816c1.048-1.138,1.488-2.417,0.856-3.971c-0.185-0.455-0.039-1.045-0.044-1.573
	c0.561,0.046,1.196-0.063,1.671,0.164c3.37,1.61,5.546,6.043,4.833,9.708c-0.062,0.319-0.235,0.65-0.189,0.95
	c0.086,0.558,0.145,1.37,0.498,1.567c0.363,0.203,1.156-0.067,1.604-0.365c1.385-0.922,1.4-0.956,2.233,0.515
	C86.58,22.307,84.255,29.286,77.422,31.861 M69.726,29.116c-0.132-1.611-0.509-3.248-0.343-4.827c0.298-2.809,1.58-5.22,3.898-6.956
	c0.268-0.201,0.729-0.146,1.1-0.21c0.047,0.387,0.174,0.786,0.115,1.157c-0.054,0.351-0.376,0.656-0.45,1.009
	c-0.292,1.389-0.679,2.784-0.716,4.185c-0.012,0.498,0.84,1.373,1.359,1.424c0.48,0.046,1.109-0.729,1.545-1.248
	c0.239-0.285,0.168-0.81,0.322-1.192c0.144-0.354,0.359-0.88,0.62-0.93c0.302-0.058,0.763,0.25,1.022,0.524
	c1.396,1.465,1.994,3.198,1.613,5.227c-0.078,0.414-0.087,0.84-0.142,1.402c3.677-2.242,4.438-8.056,1.748-11.887
	c-0.131,0.039-0.266,0.074-0.396,0.12c-2.925,1.031-4.365-0.224-3.941-3.368c0.13-0.961,0.157-1.959,0.056-2.922
	c-0.212-1.999-1.104-3.638-2.953-4.983c-0.089,2.811-1.668,4.425-3.486,5.958c-2.151,1.813-3.868,4.017-5.039,6.588
	c-2.079,4.565-0.761,8.827,3.439,11.233C69.257,29.513,69.561,29.354,69.726,29.116z"/>
<path fill="#E47325" d="M85.549,40.446c0.396,2.365-0.379,4.269-2.08,5.672c-0.549,0.452-1.695,0.594-2.4,0.363
	c-2.111-0.691-4.118-1.694-6.212-2.448c-0.622-0.224-1.464-0.21-2.089,0.017c-1.912,0.696-3.77,1.548-5.647,2.339
	c-1.625,0.686-2.557,0.457-3.653-0.916c-1.425-1.783-2.161-4.879-0.586-6.258c-1.688-2.041-0.78-5.35,1.314-7.186
	c0.841-0.736,1.762-0.656,2.736-0.232c1.914,0.836,3.822,1.697,5.787,2.402c0.666,0.238,1.563,0.236,2.229-0.006
	c1.958-0.711,3.863-1.57,5.768-2.422c1.289-0.577,2.305-0.301,3.242,0.72c1.869,2.034,2.216,4.616,0.824,6.577
	C85.027,39.494,85.273,39.918,85.549,40.446 M79.744,38.778c-3.646-1.503-7.293-3.003-10.938-4.513
	c-0.576-0.238-1.104-0.572-1.406,0.376c-0.413,1.293-0.917,2.558-1.418,3.933c0.301,0.15,0.74,0.403,1.205,0.595
	c4.549,1.874,9.123,3.688,13.639,5.638c1.242,0.537,1.948,0.242,2.498-0.82c0.316-0.609,0.604-1.252,0.771-1.913
	c0.232-0.921-0.07-1.606-1.062-1.952C81.984,39.756,80.97,39.288,79.744,38.778 M84.135,36.397c-0.319-0.804-0.488-1.729-1.008-2.37
	c-0.379-0.468-1.336-0.916-1.836-0.756c-1.746,0.563-3.405,1.394-5.385,2.246c2.273,0.946,4.246,1.834,6.27,2.582
	C83.1,38.441,83.977,37.686,84.135,36.397 M68.471,44.182c0.992-0.443,1.983-0.888,3.287-1.471
	c-1.885-0.771-3.435-1.404-5.115-2.092c0.317,1.234,0.541,2.249,0.862,3.232C67.569,44.05,68.004,44.127,68.471,44.182
	 M65.033,33.376c-1.099,1.179-1.728,2.501-1.439,4.212c1.451-0.498,2.736-2.811,2.317-4.024
	C65.854,33.397,65.45,33.352,65.033,33.376 M65.439,42.273c-0.433-0.551-0.866-1.103-1.351-1.72
	c-1.084,1.085-0.415,1.98-0.089,2.801c0.318,0.802,0.655,1.728,2.122,1.729C65.891,44.119,65.695,43.299,65.439,42.273z"/>
<path fill="#FCC760" d="M69.762,29.213c-0.201,0.141-0.505,0.3-0.664,0.209c-4.201-2.406-5.518-6.668-3.439-11.233
	c1.171-2.571,2.888-4.775,5.039-6.588c1.818-1.533,3.397-3.147,3.486-5.958c1.85,1.346,2.741,2.985,2.953,4.983
	c0.102,0.962,0.074,1.961-0.056,2.922c-0.424,3.144,1.017,4.399,3.941,3.368c0.131-0.046,0.266-0.081,0.396-0.12
	c2.69,3.831,1.929,9.645-1.748,11.887c0.055-0.563,0.063-0.988,0.142-1.402c0.381-2.029-0.218-3.762-1.613-5.227
	c-0.26-0.274-0.721-0.582-1.022-0.524c-0.261,0.05-0.477,0.577-0.62,0.93c-0.154,0.382-0.083,0.907-0.322,1.192
	c-0.436,0.52-1.064,1.294-1.545,1.248c-0.52-0.051-1.371-0.926-1.359-1.424c0.037-1.401,0.424-2.796,0.716-4.185
	c0.074-0.353,0.396-0.658,0.45-1.009c0.059-0.371-0.068-0.77-0.115-1.157c-0.371,0.064-0.832,0.009-1.1,0.21
	c-2.318,1.736-3.601,4.146-3.898,6.956C69.217,25.868,69.594,27.505,69.762,29.213z"/>
<path fill="#FCC760" d="M79.842,38.822c1.128,0.466,2.143,0.934,3.192,1.299c0.991,0.346,1.294,1.031,1.062,1.952
	c-0.167,0.661-0.455,1.304-0.771,1.913c-0.55,1.063-1.256,1.357-2.498,0.82c-4.516-1.949-9.09-3.764-13.639-5.638
	c-0.465-0.191-0.904-0.444-1.205-0.595c0.501-1.375,1.006-2.64,1.418-3.933c0.302-0.948,0.83-0.614,1.406-0.376
	C72.451,35.775,76.098,37.275,79.842,38.822z"/>
<path fill="#CB9F4A" d="M84.136,36.513c-0.159,1.173-1.036,1.929-1.96,1.587c-2.023-0.748-3.996-1.636-6.27-2.582
	c1.979-0.853,3.639-1.684,5.385-2.246c0.5-0.16,1.457,0.288,1.836,0.756C83.646,34.668,83.815,35.594,84.136,36.513z"/>
<path fill="#CDA04A" d="M68.369,44.221c-0.365-0.094-0.8-0.171-0.864-0.369c-0.321-0.983-0.545-1.998-0.862-3.232
	c1.681,0.688,3.23,1.32,5.115,2.092C70.454,43.294,69.463,43.738,68.369,44.221z"/>
<path fill="#FAC35C" d="M65.12,33.313c0.33,0.039,0.734,0.085,0.792,0.251c0.418,1.214-0.867,3.526-2.317,4.024
	C63.306,35.877,63.935,34.555,65.12,33.313z"/>
<path fill="#CC9D49" d="M65.469,42.377c0.226,0.922,0.421,1.742,0.652,2.707c-1.467-0.002-1.804-0.928-2.122-1.729
	c-0.326-0.82-0.995-1.716,0.089-2.801C64.573,41.171,65.006,41.723,65.469,42.377z"/>
<g>
	<path fill="#E26E26" d="M13.894,34.219c-0.55-0.066-0.825-0.334-0.825-0.8v-1.851c0-0.55,0.275-0.8,0.825-0.75
		c0.466,0.051,1.013,0.097,1.638,0.138c0.625,0.042,1.288,0.084,1.987,0.125c0.7,0.042,1.421,0.079,2.163,0.112
		c0.741,0.034,1.462,0.059,2.163,0.075c-0.234-0.116-0.421-0.287-0.563-0.513c-0.142-0.225-0.212-0.495-0.212-0.813v-1.949h-2.6
		c-1.083,0-1.909-0.25-2.475-0.75c-0.567-0.5-0.85-1.226-0.85-2.175v-8.1c0-0.966,0.475-1.45,1.425-1.45h10.025
		c1.4,0,2.462,0.354,3.188,1.063c0.725,0.709,1.087,1.738,1.087,3.088c0,0.533-0.059,1.059-0.175,1.575
		c-0.117,0.517-0.275,0.996-0.475,1.438c-0.2,0.442-0.446,0.837-0.738,1.188s-0.612,0.642-0.962,0.875h1.925
		c0.516,0,0.775,0.259,0.775,0.775v1.7c0,0.517-0.259,0.775-0.775,0.775h-5.75v2.149c0,0.267,0.045,0.472,0.137,0.612
		c0.091,0.143,0.208,0.246,0.35,0.313c0.142,0.067,0.308,0.104,0.5,0.113c0.191,0.008,0.388,0.012,0.587,0.012
		c0.35,0,0.754-0.008,1.212-0.024s0.938-0.042,1.438-0.075s1.004-0.075,1.513-0.125c0.508-0.05,0.979-0.1,1.413-0.15
		c0.266-0.033,0.475,0.018,0.625,0.15c0.15,0.134,0.225,0.334,0.225,0.6v1.851c0,0.433-0.275,0.7-0.825,0.8
		c-0.384,0.066-0.888,0.125-1.513,0.175s-1.329,0.096-2.112,0.138c-0.784,0.041-1.629,0.07-2.538,0.088
		c-0.909,0.016-1.854,0.024-2.837,0.024c-1.767,0-3.429-0.033-4.987-0.1C16.323,34.477,14.994,34.369,13.894,34.219z M18.769,23.569
		c0,0.333,0.108,0.592,0.325,0.775c0.216,0.184,0.516,0.275,0.9,0.275h4.925c0.333,0,0.642-0.091,0.925-0.275
		c0.283-0.183,0.529-0.429,0.737-0.737s0.371-0.679,0.488-1.113c0.116-0.433,0.175-0.9,0.175-1.4c0-1.466-0.65-2.2-1.95-2.2h-5.8
		c-0.483,0-0.725,0.242-0.725,0.725V23.569z"/>
	<path fill="#E26E26" d="M42.569,22.119c-0.817,0-1.471,0.009-1.963,0.025c-0.492,0.017-0.867,0.059-1.125,0.125
		c-0.258,0.067-0.429,0.154-0.512,0.263c-0.083,0.108-0.125,0.263-0.125,0.462c0,0.2,0.038,0.359,0.112,0.475
		c0.075,0.117,0.225,0.208,0.45,0.275c0.225,0.067,0.533,0.113,0.925,0.138s0.896,0.038,1.513,0.038c0.716,0,1.458-0.066,2.225-0.2
		c0.766-0.133,1.466-0.333,2.1-0.6c0.083-0.033,0.154-0.058,0.213-0.075c0.058-0.017,0.112-0.025,0.162-0.025
		c0.267,0,0.45,0.192,0.55,0.575l0.4,1.45c0.066,0.25,0.058,0.446-0.025,0.587c-0.083,0.142-0.267,0.262-0.55,0.362
		c-0.85,0.3-1.762,0.534-2.737,0.7c-0.975,0.167-1.946,0.25-2.913,0.25c-1.083,0-2.008-0.07-2.775-0.212s-1.392-0.371-1.875-0.688
		s-0.837-0.717-1.063-1.2s-0.337-1.075-0.337-1.775c0-1.417,0.462-2.433,1.387-3.05c0.925-0.616,2.446-0.925,4.563-0.925
		c0.8,0,1.329-0.042,1.588-0.125c0.258-0.083,0.387-0.25,0.387-0.5c0-0.283-0.137-0.466-0.413-0.55
		c-0.275-0.083-0.846-0.125-1.712-0.125c-0.667,0-1.333,0.025-2,0.075c-0.667,0.05-1.434,0.142-2.3,0.275
		c-0.5,0.067-0.75-0.15-0.75-0.65v-1.625c0-0.233,0.05-0.413,0.15-0.538s0.283-0.204,0.55-0.237c0.45-0.066,0.879-0.121,1.288-0.163
		c0.408-0.042,0.829-0.075,1.263-0.1c0.433-0.025,0.887-0.041,1.362-0.05c0.475-0.008,1.004-0.013,1.587-0.013
		c1.617,0,2.788,0.196,3.513,0.588s1.087,1.029,1.087,1.912c0,0.917-0.442,1.617-1.325,2.1h0.475c0.434,0,0.65,0.225,0.65,0.675
		v1.425c0,0.45-0.217,0.675-0.65,0.675c-0.667,0-1.275-0.004-1.825-0.012C43.544,22.123,43.036,22.119,42.569,22.119z
		 M37.694,28.943c0.633-0.066,1.287-0.129,1.962-0.188c0.675-0.058,1.408-0.104,2.2-0.137s1.663-0.063,2.613-0.088
		c0.95-0.025,2.008-0.037,3.175-0.037c1.716,0,2.979,0.358,3.788,1.074c0.808,0.717,1.212,1.834,1.212,3.351
		c0,0.783-0.017,1.408-0.05,1.875c-0.034,0.466-0.067,0.85-0.1,1.149c-0.067,0.517-0.342,0.775-0.825,0.775h-2.025
		c-0.267,0-0.471-0.071-0.612-0.213c-0.142-0.142-0.196-0.346-0.163-0.612c0.05-0.384,0.087-0.741,0.112-1.075
		c0.025-0.333,0.038-0.708,0.038-1.125c0-0.633-0.146-1.096-0.438-1.387c-0.292-0.292-0.788-0.438-1.487-0.438
		c-1.867,0-3.55,0.05-5.05,0.149c-1.5,0.101-2.95,0.2-4.35,0.3c-0.25,0.018-0.442-0.045-0.575-0.188
		c-0.134-0.141-0.2-0.337-0.2-0.587v-1.825C36.919,29.252,37.177,28.994,37.694,28.943z M52.719,26.019
		c0,0.55-0.275,0.825-0.825,0.825h-1.975c-0.55,0-0.825-0.275-0.825-0.825v-11c0-0.55,0.275-0.825,0.825-0.825h1.975
		c0.55,0,0.825,0.275,0.825,0.825v4.125c0.133-0.216,0.337-0.387,0.612-0.512s0.587-0.188,0.938-0.188h0.8
		c0.516,0,0.775,0.258,0.775,0.775v1.825c0,0.517-0.259,0.775-0.775,0.775h-0.9c-0.434,0-0.783,0.129-1.05,0.387
		c-0.267,0.259-0.4,0.588-0.4,0.988V26.019z"/>
	<path fill="#E26E26" d="M93.395,34.219c-0.551-0.066-0.825-0.334-0.825-0.8v-1.851c0-0.55,0.274-0.8,0.825-0.75
		c0.466,0.051,1.012,0.097,1.637,0.138c0.625,0.042,1.288,0.084,1.988,0.125c0.699,0.042,1.42,0.079,2.162,0.112
		c0.741,0.034,1.463,0.059,2.162,0.075c-0.233-0.116-0.421-0.287-0.563-0.513c-0.142-0.225-0.212-0.495-0.212-0.813v-1.949h-2.601
		c-1.083,0-1.908-0.25-2.475-0.75s-0.85-1.226-0.85-2.175v-8.1c0-0.966,0.475-1.45,1.425-1.45h10.024c1.4,0,2.463,0.354,3.188,1.063
		c0.726,0.709,1.088,1.738,1.088,3.088c0,0.533-0.059,1.059-0.175,1.575c-0.117,0.517-0.275,0.996-0.476,1.438
		c-0.199,0.442-0.445,0.837-0.737,1.188s-0.612,0.642-0.962,0.875h1.925c0.517,0,0.774,0.259,0.774,0.775v1.7
		c0,0.517-0.258,0.775-0.774,0.775h-5.75v2.149c0,0.267,0.046,0.472,0.138,0.612c0.091,0.143,0.208,0.246,0.35,0.313
		c0.142,0.067,0.309,0.104,0.5,0.113c0.191,0.008,0.388,0.012,0.588,0.012c0.35,0,0.754-0.008,1.212-0.024s0.938-0.042,1.438-0.075
		s1.004-0.075,1.513-0.125c0.508-0.05,0.979-0.1,1.412-0.15c0.267-0.033,0.476,0.018,0.625,0.15c0.15,0.134,0.226,0.334,0.226,0.6
		v1.851c0,0.433-0.275,0.7-0.825,0.8c-0.384,0.066-0.888,0.125-1.513,0.175s-1.329,0.096-2.112,0.138
		c-0.783,0.041-1.629,0.07-2.537,0.088c-0.909,0.016-1.854,0.024-2.838,0.024c-1.767,0-3.43-0.033-4.987-0.1
		C95.823,34.477,94.494,34.369,93.395,34.219z M98.27,23.569c0,0.333,0.107,0.592,0.324,0.775c0.217,0.184,0.517,0.275,0.9,0.275
		h4.925c0.333,0,0.642-0.091,0.925-0.275c0.283-0.183,0.529-0.429,0.738-0.737c0.208-0.309,0.37-0.679,0.487-1.113
		c0.116-0.433,0.175-0.9,0.175-1.4c0-1.466-0.65-2.2-1.95-2.2h-5.8c-0.483,0-0.725,0.242-0.725,0.725V23.569z"/>
	<path fill="#E26E26" d="M122.069,22.119c-0.817,0-1.472,0.009-1.963,0.025c-0.491,0.017-0.866,0.059-1.125,0.125
		c-0.259,0.067-0.429,0.154-0.513,0.263c-0.083,0.108-0.125,0.263-0.125,0.462c0,0.2,0.038,0.359,0.113,0.475
		c0.074,0.117,0.225,0.208,0.449,0.275c0.226,0.067,0.533,0.113,0.926,0.138c0.391,0.025,0.896,0.038,1.512,0.038
		c0.717,0,1.459-0.066,2.226-0.2c0.767-0.133,1.466-0.333,2.1-0.6c0.083-0.033,0.154-0.058,0.213-0.075
		c0.058-0.017,0.112-0.025,0.162-0.025c0.267,0,0.45,0.192,0.55,0.575l0.4,1.45c0.066,0.25,0.059,0.446-0.025,0.587
		c-0.083,0.142-0.267,0.262-0.55,0.362c-0.85,0.3-1.763,0.534-2.737,0.7c-0.975,0.167-1.946,0.25-2.912,0.25
		c-1.084,0-2.009-0.07-2.775-0.212s-1.392-0.371-1.875-0.688s-0.838-0.717-1.063-1.2s-0.338-1.075-0.338-1.775
		c0-1.417,0.463-2.433,1.388-3.05c0.925-0.616,2.446-0.925,4.563-0.925c0.8,0,1.329-0.042,1.588-0.125
		c0.258-0.083,0.388-0.25,0.388-0.5c0-0.283-0.138-0.466-0.413-0.55c-0.274-0.083-0.846-0.125-1.712-0.125
		c-0.667,0-1.334,0.025-2,0.075c-0.667,0.05-1.434,0.142-2.301,0.275c-0.5,0.067-0.75-0.15-0.75-0.65v-1.625
		c0-0.233,0.051-0.413,0.15-0.538s0.283-0.204,0.55-0.237c0.45-0.066,0.879-0.121,1.288-0.163c0.408-0.042,0.828-0.075,1.262-0.1
		c0.434-0.025,0.888-0.041,1.363-0.05c0.475-0.008,1.004-0.013,1.587-0.013c1.616,0,2.788,0.196,3.513,0.588
		s1.088,1.029,1.088,1.912c0,0.917-0.442,1.617-1.325,2.1h0.475c0.434,0,0.65,0.225,0.65,0.675v1.425c0,0.45-0.217,0.675-0.65,0.675
		c-0.667,0-1.274-0.004-1.825-0.012C123.044,22.123,122.535,22.119,122.069,22.119z M117.194,28.943
		c0.633-0.066,1.287-0.129,1.962-0.188c0.676-0.058,1.408-0.104,2.2-0.137s1.663-0.063,2.612-0.088
		c0.95-0.025,2.009-0.037,3.176-0.037c1.716,0,2.979,0.358,3.787,1.074c0.809,0.717,1.213,1.834,1.213,3.351
		c0,0.783-0.018,1.408-0.051,1.875c-0.033,0.466-0.066,0.85-0.1,1.149c-0.066,0.517-0.342,0.775-0.825,0.775h-2.024
		c-0.268,0-0.472-0.071-0.613-0.213s-0.195-0.346-0.162-0.612c0.05-0.384,0.088-0.741,0.112-1.075
		c0.025-0.333,0.038-0.708,0.038-1.125c0-0.633-0.146-1.096-0.438-1.387c-0.292-0.292-0.788-0.438-1.488-0.438
		c-1.866,0-3.55,0.05-5.05,0.149c-1.5,0.101-2.95,0.2-4.35,0.3c-0.25,0.018-0.442-0.045-0.575-0.188
		c-0.134-0.141-0.2-0.337-0.2-0.587v-1.825C116.419,29.252,116.678,28.994,117.194,28.943z M132.219,26.019
		c0,0.55-0.274,0.825-0.824,0.825h-1.976c-0.55,0-0.825-0.275-0.825-0.825v-11c0-0.55,0.275-0.825,0.825-0.825h1.976
		c0.55,0,0.824,0.275,0.824,0.825v4.125c0.134-0.216,0.338-0.387,0.613-0.512c0.274-0.125,0.587-0.188,0.938-0.188h0.8
		c0.517,0,0.774,0.258,0.774,0.775v1.825c0,0.517-0.258,0.775-0.774,0.775h-0.9c-0.434,0-0.783,0.129-1.05,0.387
		c-0.267,0.259-0.4,0.588-0.4,0.988V26.019z"/>
</g>
</svg>
